<?xml version="1.0" encoding="UTF-8"?><svg version="1.1" id="searching" xmlns="http://www.w3.org/2000/svg" xmlns:xlink="http://www.w3.org/1999/xlink" x="0px" y="0px" viewBox="0 0 800 792.4" enable-background="new 0 0 800 792.4" xml:space="preserve" width="800px" height="793px">
<path fill="#04294F" d="M800,490.7c0-21.5-4.5-42.8-13.4-62.4l0,0c-23.8-52.9-29.1-119.1-19-166.2c0.5-2.2,1-4.3,1.5-6.5l0.1-0.3
	c0.3-1.4,0.6-2.8,0.8-4.2C790.2,144,719.8,40.8,612.7,20.6c-11.9-2.2-24-3.4-36.2-3.4c-2.9,0-5.7,0.1-8.5,0.2c-0.2,0-0.5,0-0.8,0
	h-0.7c-0.2,0-0.2,0-0.4,0h-0.2c-2.6,0.2-5.2,0.3-7.8,0.5c-36.4,2.2-71.1-0.5-109.8-11l0,0c-17.3-4.6-35.2-7-53.2-7
	c-84.9,0-157.7,51.6-188.8,125.2l0,0c-1.2,2.9-2.4,5.9-3.5,8.9c-17.3,38.9-53,55.7-88.4,65.9l0,0c-49.4,13-86.3,58.9-85.4,112
	c0.3,19.3,5.5,38.2,15.2,54.8c0.3,0.6,0.6,1.2,1,1.8l0.1,0.1c0.8,1.3,1.6,2.6,2.5,3.9c10.3,18.7,4.8,45.1-12.2,72.7l0,0
	C-31.6,550.4-0.8,689.9,104.3,757c69.9,44.6,158.7,47.3,231.2,6.9l0,0c32.1-17.8,69.2-19.9,96.7-7.8l0.2,0.1
	c93.7,38.9,201.5,0.5,249.5-88.7l0,0c11.9-20.2,24.3-33.6,45-47.3c1.8-1.1,3.5-2.2,5.2-3.3h0.1c0.4-0.2,0.8-0.5,1.2-0.8
	C775.1,588,800.1,541,800,490.7z"/>
<circle fill="#FFB400" cx="699.5" cy="564.3" r="5.7"/>
<circle fill="#FFB400" cx="712" cy="544.7" r="3.6"/>
<circle fill="#FFB400" cx="359.1" cy="668.8" r="3.6"/>
<circle fill="#FFB400" cx="292.1" cy="741.3" r="3.6"/>
<circle fill="#FFB400" cx="292.1" cy="577.7" r="3.6"/>
<circle fill="#FFB400" cx="128" cy="548.3" r="3.6"/>
<circle fill="#FFB400" cx="108.6" cy="371.3" r="3.6"/>
<circle fill="#FFB400" cx="228.2" cy="279.4" r="3.5"/>
<circle fill="#FFB400" cx="260.6" cy="188.5" r="3.5"/>
<circle fill="#FFB400" cx="524.5" cy="188.5" r="3.5"/>
<circle fill="#FFB400" cx="348.7" cy="238.5" r="3.5"/>
<circle fill="#FFB400" cx="451.8" cy="328.7" r="3.5"/>
<circle fill="#FFB400" cx="219.7" cy="396.2" r="3.6"/>
<circle fill="#FFB400" cx="62.7" cy="255.1" r="3.5"/>
<circle fill="#FFB400" cx="400" cy="536.5" r="3.6"/>
<circle fill="#FFB400" cx="701.5" cy="113.6" r="3.6"/>
<circle fill="#FFB400" cx="421.8" cy="701.1" r="3.6"/>
<circle fill="#FFB400" cx="625.6" cy="564.3" r="3.6"/>
<circle fill="#FFB400" cx="539.8" cy="471.4" r="3.6"/>
<circle fill="#FFB400" cx="455.4" cy="598.8" r="3.6"/>
<circle fill="#FFB400" cx="783.9" cy="506.6" r="5.7"/>
<circle fill="#FFB400" cx="343" cy="650" r="5.7"/>
<circle fill="#FFB400" cx="133.7" cy="628" r="5.7"/>
<circle fill="#FFB400" cx="409.3" cy="491.2" r="5.7"/>
<circle fill="#FFB400" cx="496" cy="185" r="5.7"/>
<circle fill="#FFB400" cx="663.7" cy="307.7" r="5.7"/>
<circle fill="#FFB400" cx="88.3" cy="390.6" r="5.7"/>
<circle fill="#FFB400" cx="266.2" cy="337.9" r="5.7"/>
<circle fill="#FFB400" cx="418.2" cy="79" r="5.7"/>
<circle fill="#FFB400" cx="616.3" cy="275.9" r="5.7"/>
<ellipse transform="matrix(0.1602 -0.9871 0.9871 0.1602 71.3308 370.8393)" fill="#FFB400" cx="253.6" cy="143.5" rx="5.7" ry="5.7"/>
<circle fill="#04294F" cx="184.3" cy="49.6" r="19.1"/>
<ellipse transform="matrix(0.9225 -0.3859 0.3859 0.9225 -42.2746 53.5647)" fill="#04294F" cx="112.286" cy="132.083" rx="52.498" ry="38.699"/>
<circle fill="#FFB400" cx="99.7" cy="156.1" r="3.5"/>
<circle fill="#FFB400" cx="104.5" cy="129.1" r="5.7"/>
<path fill="#00AEE0" d="M603,606.1c-85.3,0-154.6,69.2-154.6,154.6c0,0.5,0,0.9,0,1.5c90.5,28.8,188.5-11,233.6-94.6l0,0
	c5.9-10.2,12-18.6,19.2-26.1C673.6,618.5,638.8,606,603,606.1z"/>
<path fill="#04294F" d="M680.9,627.1c-3-0.2-6.1,0-9.1,0.1c-5,0.2-9.8,0.4-14-0.7c-4-1-8-3.5-12.3-6.1c-6-3.6-12.2-7.4-19.2-7.6
	c-6.7-0.2-12.9,3-19,6.2c-4.6,2.4-8.9,4.6-13.3,5.4c-4.1,0.7-8.9,0-13.8-0.7c-6.9-1-13.9-2-20.4,0.5c-6.2,2.3-10.7,7.6-15.1,12.6
	c-3.5,4-6.7,7.7-10.6,10.1c-3.9,2.4-8.7,3.5-13.8,4.6c-6.6,1.5-13.3,3.1-18.2,7.5c-5.2,4.6-7.6,11.4-9.9,17.9
	c-1.7,4.8-3.2,9.2-5.8,12.6c-2.7,3.5-6.7,6.3-10.9,9.3c-5.5,3.9-11.3,7.9-14.3,14c-3.1,6.3-2.6,13.6-2.2,20.6
	c0.3,4.9,0.6,9.6-0.3,13.6c-1,4.2-3.4,8.2-5.9,12.6c-0.6,1.1-1.2,2.2-1.9,3.3c1.4,0.4,2.7,0.8,4.1,1.2l1.2,0.3l0.8,0.2
	c0.4-0.6,0.8-1.3,1.1-1.9c2.6-4.5,5.3-9.2,6.6-14.3s0.8-10.3,0.5-15.5c-0.4-6.5-0.8-12.6,1.5-17.5c2.2-4.6,7.1-8,12.3-11.6
	c4.5-3.1,9-6.3,12.3-10.6c3.1-4.1,4.9-9.2,6.7-14.3c2.2-6,4.2-11.8,8.2-15.3c3.8-3.3,9.5-4.7,15.5-6.1c5.4-1.2,10.9-2.5,15.6-5.4
	c4.6-2.9,8.4-7.2,12-11.3c4.1-4.7,7.9-9.2,12.6-10.9c5.1-1.9,11-1.1,17.4-0.2c5.2,0.8,10.6,1.5,15.7,0.6c5.3-0.9,10.3-3.5,15.1-5.9
	c5.6-2.9,10.9-5.6,16-5.5c5.5,0.2,10.6,3.4,16.2,6.8c4.5,2.7,9,5.5,14,6.8s10.4,1.1,15.7,0.8c6.5-0.2,12.6-0.5,17.2,1.9
	c2.5,1.5,4.8,3.5,6.5,5.9c-1.3-0.8-2.7-1.4-4.1-1.8c-5.8-1.8-12,0-18,1.7c-4.4,1.2-8.9,2.5-12.9,2.3c-3.5-0.2-7.5-1.9-11.6-3.7
	c-5.9-2.5-11.9-5.2-18.3-4.3c-5.8,0.8-10.7,4.5-15.5,8.2c-3.8,2.9-7.6,5.8-11.6,6.9c-3.6,1-8,0.6-12.7,0.2
	c-6.2-0.6-12.5-1.2-18.2,1.3c-5.3,2.4-9,7.2-12.6,12c-3,3.9-5.8,7.7-9.3,9.9s-8.2,2.9-13,3.7c-5.9,0.9-11.9,1.9-16.5,5.5
	c-4.9,3.9-7.3,9.8-9.6,15.5c-1.8,4.4-3.5,8.5-6.1,11.2c-2.9,3-7.2,5-11.6,7c-5.5,2.5-11.1,5.2-14.4,9.9c-3.7,5.3-4.2,11.9-4.7,18.3
	c-0.3,4.5-0.6,8.8-2.2,12s-4.3,6.5-7.2,9.5l0.7,0.2l1.6,0.3l1.8,0.4l2.3,0.5l0.7,0.2c2.3-2.5,4.2-5.3,5.8-8.4
	c1.9-4.2,2.3-9.2,2.7-14.2c0.5-5.8,0.8-11.3,3.6-15.2c2.4-3.5,7.1-5.6,11.9-7.9c4.8-2.2,9.8-4.5,13.4-8.3c3.4-3.5,5.4-8.4,7.3-13.2
	c2.2-5.2,4.2-10.2,7.8-13c3.3-2.6,8.3-3.5,13.7-4.3s10.7-1.8,15.3-4.5c4.5-2.7,7.9-7.2,11-11.4c3.2-4.2,6.3-8.4,10.2-10.1
	c4.2-1.8,9.5-1.4,15.1-0.8c5.1,0.5,10.3,1,15-0.4c5.1-1.5,9.4-4.8,13.6-7.9c4.3-3.3,8.4-6.4,12.6-6.9c4.8-0.6,9.8,1.5,15.1,3.9
	c4.5,1.9,9.1,3.9,13.8,4.2c5.1,0.3,10.1-1.2,15-2.5c5.4-1.5,10.6-2.9,14.6-1.7c1.9,0.6,3.7,1.7,5.2,3c0.2-0.2,0.4-0.5,0.5-0.7l0.8-1
	c0.6-0.8,1.2-1.5,1.9-2.2l0.4-0.5c0.8-0.8,1.5-1.7,2.2-2.5l0.3-0.3C694.9,636.1,688.1,631.3,680.9,627.1z"/>
<path fill="#04294F" d="M689.4,653.9c-5.1,0-9.7,3.1-14.3,6c-3.7,2.4-7.5,4.9-11.3,5.5c-3,0.5-6.9-0.5-10.9-1.5
	c-5.2-1.4-11.3-2.9-16.8-1.2c-4.9,1.5-8.6,5.5-12.2,9.5c-3,3.2-6,6.6-9.5,8c-3,1.2-7.2,1-11.5,0.7c-5.5-0.4-11.2-0.7-16.1,1.8
	c-4.6,2.3-7.6,6.9-10.5,11.4c-2.5,3.9-4.9,7.5-7.9,9.3c-3.1,1.8-7.4,2.2-11.9,2.7c-5.3,0.5-10.8,1-15,3.9c-4.5,3.2-6.9,8.4-9.1,13.5
	c-1.8,4-3.5,7.8-6,9.9c-2.9,2.4-7.2,3.5-11.5,4.6c-5.2,1.3-10.5,2.7-14,6.3c-4.1,4.2-5.5,10.2-6.7,15.4c-0.9,4.1-1.9,7.9-3.7,10.4
	l-0.2,0.2c2.3,0.2,4.6,0.4,6.9,0.5c1.3-3.1,2.3-6.3,3-9.6c1.1-4.7,2.2-9.6,5.1-12.5c2.4-2.4,6.7-3.5,11.2-4.7c4.9-1.3,10-2.6,14-5.9
	c3.6-3,5.6-7.6,7.6-12.1s3.9-8.7,7-10.9c2.9-2,7.2-2.5,11.9-2.9c5.1-0.5,10.3-0.9,14.6-3.5s7.2-7,9.9-11.3c2.5-3.9,5-7.7,8.1-9.2
	c2.2-1.1,4.7-1.4,7.5-1.4c1.8,0,3.5,0.2,5.5,0.2c4.9,0.3,9.9,0.6,14.3-1.2c4.7-1.9,8.2-5.9,11.7-9.6c3.2-3.5,6.2-6.7,9.4-7.7
	c3.9-1.2,8.7,0.1,13.4,1.3c4.5,1.2,9.2,2.4,13.6,1.6c5-0.8,9.4-3.7,13.6-6.5c2.4-1.7,4.9-3.2,7.6-4.3c1.5-2.4,3.1-4.6,4.6-6.8
	c-0.5,0-0.8-0.1-1.3-0.1L689.4,653.9z"/>
<path fill="#04294F" d="M658.5,688.2c-4.9-0.7-10.5-1.5-15.3,0.7c-4.2,1.9-7.1,6.1-9.8,10.1c-2.3,3.4-4.7,6.9-7.6,8.5
	c-2.5,1.3-6.5,1.2-10.6,0.9c-5.1-0.2-10.3-0.5-14.7,2c-4.2,2.3-6.6,6.7-9,11c-2.1,3.7-4.1,7.2-6.8,8.9c-2.7,1.6-6.8,1.8-11,1.9
	c-4.9,0.2-10,0.3-14,2.9c-4.2,2.8-6.5,7.6-8.6,12.1c-1.8,3.7-3.4,7.2-5.7,8.9c-2.7,1.9-6.9,2.4-11,2.9c-4.9,0.5-9.9,1.1-13.5,4
	c-2.7,2.2-4.5,5.2-5.9,8.4c2.4-0.1,4.7-0.2,7-0.4c0.7-1.2,1.5-2.3,2.6-3.2c2.3-1.8,6.2-2.2,10.4-2.7c4.9-0.5,9.9-1.1,14-3.9
	c3.7-2.6,5.7-7,7.7-11.3c1.8-4,3.6-7.8,6.4-9.6c2.5-1.6,6.6-1.8,10.8-1.9c4.9-0.2,9.9-0.3,14-2.8s6.6-6.9,9-11.1
	c2.1-3.7,4.1-7.2,6.7-8.6c2.9-1.6,7.1-1.4,11.5-1.2c4.7,0.2,9.6,0.4,13.6-1.6c4.4-2.2,7.2-6.4,9.9-10.5c2.3-3.5,4.5-6.8,7.2-7.9
	c3.2-1.4,7.6-0.8,11.9-0.2c2.2,0.3,4.3,0.5,6.5,0.7c1.8-2.2,3.5-4.5,5.2-6.9c-0.2,0.1-0.4,0.2-0.6,0.2
	C666.1,689.3,662.4,688.7,658.5,688.2z"/>
<ellipse transform="matrix(0.8279 -0.5609 0.5609 0.8279 -265.6488 532.5358)" fill="#04294F" cx="734.914" cy="699.128" rx="38.201" ry="31.6"/>
<path fill="#00AEE0" d="M726.7,668c-3.3,1.2-6.6,2.9-9.5,4.9c-17.5,11.8-23.7,33.1-13.9,47.6s31.9,16.6,49.3,4.8l0.7-0.5
	C748.4,704.2,739.4,684.9,726.7,668z"/>
<path fill="#04294F" d="M753.1,723.7l-0.5-0.8c-2.5-4.2-4.9-8.1-6-12.1c-0.8-3-0.8-6.3-0.8-9.9c-4.9-11.7-11.3-22.7-18.9-32.9
	c0,0-0.2,0-0.3,0.1c-1.5,0.6-3,1.2-4.5,2l-0.5,0.3c-0.5,0.3-1.2,0.6-1.7,0.9l-0.6,0.3c-0.7,0.5-1.4,0.8-2.1,1.3s-1.2,0.8-1.9,1.3
	l-0.5,0.4c-0.5,0.3-0.8,0.7-1.2,1l-0.5,0.5c-0.4,0.4-0.8,0.7-1.2,1.1l-0.4,0.4c-0.5,0.5-1,1-1.5,1.5c0.3,0,0.5-0.1,0.8-0.2
	c4.1-0.9,8.1-2,12-3.4c1.7-0.5,3.9-1.2,5.7-1.8c0.8,0.4,1.7,0.8,2.5,1.2c-1.4,1.7-3.6,3.8-5.2,5.4c-3.1,2.9-5.9,5.9-8.6,9.1
	c-2.2,2.7-3,6.6-3.9,10.6c-1,4.5-2,9.2-5,12.1c-1.6,1.5-4.5,2.2-7.8,2.8c0.4,1,0.8,2,1.3,2.9l0,0c0.2,0.5,0.5,0.9,0.8,1.4
	s0.5,0.9,0.8,1.4l0,0c3.4-0.7,6.7-1.8,9.1-3.9c4.4-4.1,5.7-10,6.9-15.3c0.7-3.3,1.4-6.4,2.7-8c2.5-3,5.2-5.9,8.1-8.6
	c1.3-1.3,2.6-2.5,3.7-3.7c-0.8,2.5-1.7,5-2.8,7.4c-1.5,3.2-2.7,6.6-3.6,10.1c-0.8,3.4-0.3,7.1,0.2,11.1c0.6,5.2,1.2,10.7-1.2,14.8
	c-1.5,2.6-5.4,4.5-9.5,6.5c0.7,0.2,1.4,0.5,2.2,0.7l0.2,0.1c0.7,0.2,1.4,0.4,2.2,0.5l0,0c0.8,0.2,1.5,0.3,2.4,0.4h0.1
	c0.8,0.1,1.6,0.2,2.4,0.2c2.2-1.3,4-3.2,5.4-5.2c3.5-5.9,2.7-12.6,2-18.7c-0.4-3.4-0.8-6.6-0.2-9c0.8-3.1,1.9-6.2,3.2-9.1
	c0.5-1.3,1.2-2.7,1.6-4c0,3.1-0.2,6.2-0.7,9.3c-0.5,4.3-1.1,8.8-0.5,12.9c0.6,4.2,2.5,8.3,4.2,12.3c1.2,2.6,2.4,5.3,3.3,8.1
	c0.6-0.2,1.3-0.5,1.9-0.8l0.2-0.2c0.5-0.2,1.1-0.5,1.6-0.8l0.4-0.2c0.5-0.3,1-0.5,1.5-0.8l0.5-0.2c0.6-0.4,1.2-0.8,1.9-1.2l0.7-0.5
	C753.3,724.4,753.1,724.1,753.1,723.7z"/>
</svg>